<svg width="25" height="25" viewBox="0 0 25 25" fill="none" xmlns="http://www.w3.org/2000/svg">
<path d="M24.9979 12.5C24.9979 5.59583 19.4021 0 12.499 0C5.59583 0 0 5.59583 0 12.5C0 18.7375 4.57083 23.9083 10.5458 24.8458V16.1125H7.37292V12.499H10.5458V9.74583C10.5458 6.6125 12.4125 4.88229 15.2667 4.88229C16.6344 4.88229 18.0646 5.12604 18.0646 5.12604V8.20208H16.4896C14.9375 8.20208 14.4531 9.16563 14.4531 10.1542V12.5H17.9198L17.3656 16.1135H14.4531V24.8469C20.4281 23.9094 24.999 18.7385 24.999 12.5H24.9979Z" fill="#3B5998"/>
</svg>
