<svg width="12" height="12" viewBox="0 0 12 12" fill="none" xmlns="http://www.w3.org/2000/svg">
<path d="M6 12C9.31371 12 12 9.31371 12 6C12 2.68629 9.31371 0 6 0C2.68629 0 0 2.68629 0 6C0 9.31371 2.68629 12 6 12Z" fill="#039BE5"/>
<path d="M2.74563 5.8701L8.53063 3.6396C8.79913 3.5426 9.03363 3.7051 8.94663 4.1111L8.94713 4.1106L7.96213 8.7511C7.88913 9.0801 7.69363 9.1601 7.42013 9.0051L5.92013 7.8996L5.19663 8.5966C5.11663 8.6766 5.04913 8.7441 4.89413 8.7441L5.00063 7.2176L7.78063 4.7061C7.90163 4.5996 7.75363 4.5396 7.59413 4.6456L4.15863 6.8086L2.67763 6.3466C2.35613 6.2446 2.34913 6.0251 2.74563 5.8701Z" fill="white"/>
</svg>
