<svg width="12" height="12" viewBox="0 0 12 12" fill="none" xmlns="http://www.w3.org/2000/svg">
<g clip-path="url(#clip0)">
<path d="M11.5775 6.94627C11.9355 3.93277 11.4055 2.03027 10.4495 1.16977L10.45 1.16927C8.90704 -0.300232 3.69604 -0.517732 1.85004 1.23527C1.02104 2.09277 0.72904 3.35127 0.69704 4.90927C0.66504 6.46777 0.62704 9.38727 3.34754 10.1793H3.35004L3.34754 11.3888C3.34754 11.3888 3.32904 11.8788 3.64204 11.9773C4.00004 12.0933 4.16204 11.8658 5.27554 10.5358C7.13754 10.6973 8.56754 10.3273 8.73004 10.2733C9.10604 10.1473 11.2335 9.86577 11.5775 6.94627ZM5.45904 9.68477C5.45904 9.68477 4.28054 11.1543 3.91404 11.5358C3.79404 11.6598 3.66254 11.6483 3.66454 11.4023C3.66454 11.2408 3.67354 9.39427 3.67354 9.39427C1.36704 8.73327 1.50304 6.24727 1.52804 4.94677C1.55304 3.64577 1.79104 2.58027 2.49304 1.86277C4.11254 0.344268 8.68104 0.683768 9.84504 1.77777C11.268 3.03927 10.7615 6.60327 10.7645 6.72477C10.472 9.16177 8.74804 9.31627 8.43104 9.42177C8.29554 9.46677 7.03804 9.79027 5.45904 9.68477Z" fill="#8E24AA"/>
<path d="M6.11117 2.14844C5.91867 2.14844 5.91867 2.44844 6.11117 2.45094C7.60467 2.46244 8.83467 3.50344 8.84817 5.41294C8.84817 5.61444 9.14317 5.61194 9.14067 5.41044H9.14017C9.12417 3.35294 7.78117 2.15994 6.11117 2.14844Z" fill="#8E24AA"/>
<path d="M8.07547 5.09652C8.07097 5.29552 8.36547 5.30502 8.36797 5.10352C8.39247 3.96902 7.69297 3.03452 6.37847 2.93602C6.18597 2.92202 6.16597 3.22452 6.35797 3.23852C7.49797 3.32502 8.09847 4.10302 8.07547 5.09652Z" fill="#8E24AA"/>
<path d="M7.76061 6.38705C7.51361 6.24405 7.26211 6.33305 7.15811 6.47355L6.94061 6.75505C6.83011 6.89805 6.62361 6.87905 6.62361 6.87905C5.11661 6.48055 4.71361 4.90355 4.71361 4.90355C4.71361 4.90355 4.69511 4.69005 4.83311 4.57555L5.10511 4.35055C5.24111 4.24255 5.32711 3.98255 5.18861 3.72705C4.81861 3.05855 4.57011 2.82805 4.44361 2.65105C4.31061 2.48455 4.11061 2.44705 3.90261 2.55955H3.89811C3.46561 2.81255 2.99211 3.28605 3.14361 3.77355C3.40211 4.28755 3.87711 5.92605 5.39111 7.16405C6.10261 7.74955 7.22861 8.34955 7.70661 8.48805L7.71111 8.49505C8.18211 8.65205 8.64011 8.16005 8.88461 7.71455V7.71105C8.99311 7.49555 8.95711 7.29155 8.79861 7.15805C8.51761 6.88405 8.09361 6.58155 7.76061 6.38705Z" fill="#8E24AA"/>
<path d="M6.58467 4.05184C7.06517 4.07984 7.29817 4.33084 7.32317 4.84634C7.33217 5.04784 7.62467 5.03384 7.61567 4.83234C7.58367 4.15934 7.23267 3.78434 6.60067 3.74934C6.40817 3.73784 6.39017 4.04034 6.58467 4.05184Z" fill="#8E24AA"/>
</g>
<defs>
<clipPath id="clip0">
<rect width="12" height="12" fill="white"/>
</clipPath>
</defs>
</svg>
